<svg xmlns="http://www.w3.org/2000/svg" fill="none" viewBox="0 0 84 64" height="64" width="84">
<path fill="#2D81FF" d="M43.3026 45.0293C45.1985 44.1551 48.3105 42.6109 51.3912 40.6018C55.7398 37.7658 60.9234 33.4092 60.9234 28.7604V15.2303C56.2735 18.6538 52.2582 23.082 49.2499 28.1319C46.1533 33.3298 44.1594 39.0062 43.3026 45.0293ZM22.8861 15.1608V28.7603C22.8861 33.4167 28.085 37.7798 32.4463 40.62C35.5777 42.6592 38.7298 44.2143 40.6074 45.0759C39.7544 39.0354 37.7582 33.3431 34.6536 28.1318C31.6249 23.048 27.5759 18.5936 22.8861 15.1608ZM32.8685 8.49991L23.0246 2.32906C22.9644 2.31898 22.9141 2.33661 22.8861 2.35211V11.4464C26.0033 10.0975 29.3631 9.10785 32.8685 8.49991ZM47.2636 26.9383C50.3241 21.8011 54.3748 17.2707 59.0654 13.7171C53.7402 11.3496 47.6486 10.1053 41.2743 10.1053C35.271 10.1053 29.4661 11.2223 24.3398 13.349C29.2412 16.9561 33.4721 21.6207 36.6398 26.9383C39.052 30.9872 40.8262 35.3118 41.9517 39.8549C43.0773 35.3118 44.8515 30.9872 47.2636 26.9383ZM60.9234 2.35211C60.8954 2.33661 60.8451 2.31898 60.7849 2.32906L50.6594 8.67641C54.2884 9.38335 57.7414 10.5049 60.9234 12.0174V2.35211ZM59.8364 0.200617C60.6215 -0.13067 61.51 -0.0479454 62.2131 0.421281C62.855 0.849824 63.2381 1.55192 63.2381 2.29954V28.7903C63.2223 33.3572 59.6511 37.9935 52.6224 42.5707C48.9644 44.9529 45.3503 46.6705 43.5346 47.4772L42.612 48.4736C42.2559 48.858 41.5536 48.858 41.1973 48.4736L40.2749 47.4772C38.4592 46.6705 34.845 44.9529 31.1871 42.5707C24.1585 37.9935 20.5871 33.3572 20.5714 28.7903V2.29954C20.5714 1.55192 20.9545 0.849824 21.5965 0.421281C22.2994 -0.0479454 23.188 -0.130477 23.9729 0.200617L24.0587 0.236652L24.1376 0.286248L36.4674 8.01532C38.0514 7.86207 39.6557 7.78031 41.2743 7.78031C43.2671 7.78031 45.2344 7.89811 47.1637 8.1271L59.7506 0.236652L59.8364 0.200617ZM21.3096 56.5881L19.9755 60.8671H22.6438L21.3096 56.5881ZM17.2465 64L20.4 54.8571H22.2072L25.3607 64H23.6141L23.0563 62.208H19.551L18.993 64H17.2465ZM1.91635 57.2913C1.91635 56.567 2.37727 56.1871 2.89883 56.1871C3.37178 56.1871 3.89335 56.5076 4.20871 57.0063L5.36101 56.0564C4.79093 55.3677 3.80844 54.8571 2.87447 54.8571C1.57673 54.8571 0.315365 55.7357 0.315365 57.398C0.315365 59.0657 1.52092 59.5347 2.58825 59.95C3.43602 60.2798 4.19658 60.5757 4.19658 61.4114C4.19658 62.1238 3.65076 62.5512 2.97151 62.5512C2.20746 62.5512 1.57673 62.0171 1.30988 61.3046L0 62.0882C0.448688 63.1332 1.61311 64 2.97151 64C4.46343 64 5.79757 63.0263 5.79757 61.3758C5.79757 59.5585 4.52224 59.0599 3.43369 58.6344C2.62326 58.3176 1.91635 58.0412 1.91635 57.2913ZM12.091 56.365C13.219 56.365 14.165 57.0181 14.6259 57.9799L16.0207 57.3269C15.2931 55.8545 13.8011 54.8571 12.091 54.8571C9.65307 54.8571 7.6882 56.8993 7.6882 59.4285C7.6882 61.9576 9.65307 64 12.091 64C13.8011 64 15.2931 63.0026 16.0207 61.5183L14.6259 60.8653C14.165 61.8389 13.219 62.492 12.091 62.492C10.49 62.492 9.24067 61.1503 9.24067 59.4285C9.24067 57.7069 10.49 56.365 12.091 56.365ZM31.753 59.3067L29.2544 54.8571H27.4715V64H29.0846V57.271L31.7408 62.0984L34.4335 57.283V64H36.0346V54.8571H34.2758L31.753 59.3067ZM41.4928 56.1871C40.9713 56.1871 40.5104 56.567 40.5104 57.2913C40.5104 58.0412 41.2173 58.3176 42.0277 58.6344C43.1163 59.0599 44.3916 59.5585 44.3916 61.3758C44.3916 63.0263 43.0574 64 41.5656 64C40.2072 64 39.0427 63.1332 38.5939 62.0882L39.9039 61.3046C40.1708 62.0171 40.8014 62.5512 41.5656 62.5512C42.2448 62.5512 42.7906 62.1238 42.7906 61.4114C42.7906 60.5757 42.03 60.2798 41.1823 59.95C40.1149 59.5347 38.9093 59.0657 38.9093 57.398C38.9093 55.7357 40.1708 54.8571 41.4685 54.8571C42.4025 54.8571 43.3849 55.3677 43.955 56.0564L42.8028 57.0063C42.4874 56.5076 41.9657 56.1871 41.4928 56.1871ZM52.0089 58.7093H48.6734V54.8571H47.0603V64H48.6734V60.1357H52.0089V64H53.61V54.8571H52.0089V58.7093ZM58.2798 64H56.6667V54.8571H58.2798V64ZM61.3243 64H66.3579V62.5858H62.9375V60.1357H65.8848V58.7093H62.9375V56.2713H66.3579V54.8571H61.3243V64ZM69.0992 54.8571H70.7123V62.5858H73.3564V64H69.0992V54.8571ZM78.6933 62.5858H77.5895V56.2712H78.6933C80.2337 56.2712 81.4345 57.6609 81.4345 59.4285C81.4345 61.1962 80.2337 62.5858 78.6933 62.5858ZM78.6934 54.8571H75.9886V64H78.6934C81.107 64 83.0476 61.9521 83.0476 59.4286C83.0476 56.9052 81.107 54.8571 78.6934 54.8571ZM52.1595 34.1486C51.5908 34.2714 50.4173 34.5853 49.4057 35.2448C48.4463 35.8703 47.8826 36.6433 47.6243 37.0653C47.5493 37.1877 47.6567 37.3404 47.7968 37.31C48.3652 37.1873 49.539 36.8733 50.5505 36.2138C51.5098 35.5884 52.0734 34.8152 52.3317 34.3935C52.4068 34.271 52.2993 34.1184 52.1595 34.1486ZM33.6286 35.2449C34.588 35.8703 35.1515 36.6433 35.4099 37.0653C35.485 37.1877 35.3775 37.3404 35.2375 37.3102C34.669 37.1873 33.4953 36.8735 32.4837 36.2138C31.5245 35.5884 30.9608 34.8154 30.7024 34.3935C30.6275 34.271 30.735 34.1184 30.8748 34.1486C31.4435 34.2714 32.617 34.5853 33.6286 35.2449Z" clip-rule="evenodd" fill-rule="evenodd"></path>
</svg>
